<?xml version="1.0" encoding="UTF-8" standalone="no"?>
<!-- Created with Inkscape (http://www.inkscape.org/) -->

<svg
   width="47.625mm"
   height="47.625mm"
   viewBox="0 0 47.625 47.625"
   version="1.1"
   id="svg1"
   inkscape:version="1.3.2 (091e20e, 2023-11-25)"
   sodipodi:docname="nsw-ferries.svg"
   xmlns:inkscape="http://www.inkscape.org/namespaces/inkscape"
   xmlns:sodipodi="http://sodipodi.sourceforge.net/DTD/sodipodi-0.dtd"
   xmlns="http://www.w3.org/2000/svg"
   xmlns:svg="http://www.w3.org/2000/svg">
  <sodipodi:namedview
     id="namedview1"
     pagecolor="#ffffff"
     bordercolor="#000000"
     borderopacity="0.25"
     inkscape:showpageshadow="2"
     inkscape:pageopacity="0.0"
     inkscape:pagecheckerboard="0"
     inkscape:deskcolor="#d1d1d1"
     inkscape:document-units="mm"
     inkscape:zoom="2.6280344"
     inkscape:cx="126.90093"
     inkscape:cy="66.970204"
     inkscape:window-width="2048"
     inkscape:window-height="1253"
     inkscape:window-x="0"
     inkscape:window-y="73"
     inkscape:window-maximized="0"
     inkscape:current-layer="layer1" />
  <defs
     id="defs1">
    <clipPath
       clipPathUnits="userSpaceOnUse"
       id="clipPath1735-2">
      <path
         d="M 0,0 H 841.89 V 595.275 H 0 Z"
         transform="translate(-41.101701,-492.79421)"
         id="path1735-5" />
    </clipPath>
    <clipPath
       clipPathUnits="userSpaceOnUse"
       id="clipPath1737">
      <path
         d="M 0,0 H 841.89 V 595.275 H 0 Z"
         transform="translate(-41.101701,-517.40261)"
         id="path1737" />
    </clipPath>
    <clipPath
       clipPathUnits="userSpaceOnUse"
       id="clipPath1739-0">
      <path
         d="M 0,0 H 841.89 V 595.275 H 0 Z"
         transform="translate(-37.970901,-497.58231)"
         id="path1739-8" />
    </clipPath>
  </defs>
  <g
     inkscape:label="Layer 1"
     inkscape:groupmode="layer"
     id="layer1">
    <g
       id="g105"
       inkscape:label="F"
       transform="matrix(4.7625002,0,0,4.7625002,-381.00003,-476.25002)">
      <path
         id="path1734"
         d="m 0,0 c -6.536,0 -11.852,5.317 -11.852,11.853 0,6.535 5.316,11.853 11.852,11.853 6.538,0 11.854,-5.318 11.854,-11.853 C 11.854,5.317 6.538,0 0,0"
         style="fill:#58b948 icc-color(sRGB-IEC61966-2, 0.1, 0.34599304, 0.72698975, 0.28199768);fill-opacity:1;fill-rule:nonzero;stroke:none"
         transform="matrix(0.39197238,0,0,-0.39197238,84.99961,109.64582)"
         clip-path="url(#clipPath1735-2)" />
      <path
         id="path1736"
         d="m 0,0 c -7.034,0 -12.755,-5.723 -12.755,-12.756 0,-7.034 5.721,-12.756 12.755,-12.756 7.035,0 12.757,5.722 12.757,12.756 C 12.757,-5.723 7.035,0 0,0 m 0,-1.945 c 5.972,0 10.811,-4.84 10.811,-10.811 0,-5.971 -4.839,-10.811 -10.811,-10.811 -5.971,0 -10.81,4.84 -10.81,10.811 0,5.971 4.839,10.811 10.81,10.811"
         style="fill:#ffffff icc-color(sRGB-IEC61966-2, 0.1, 1, 1, 1);fill-opacity:1;fill-rule:nonzero;stroke:none"
         transform="matrix(0.39197238,0,0,-0.39197238,84.99961,100)"
         clip-path="url(#clipPath1737)" />
      <path
         id="path1738"
         d="M 0,0 C -0.126,0 -0.254,0.073 -0.254,0.255 V 13.35 h 7.203 c 0.146,0 0.275,-0.092 0.275,-0.256 v -1.768 c 0,-0.128 -0.056,-0.292 -0.256,-0.292 H 2.37 V 7.532 h 4.214 c 0.146,0 0.237,-0.11 0.237,-0.273 V 5.545 C 6.821,5.398 6.73,5.289 6.584,5.289 H 2.37 V 0.255 C 2.37,0.091 2.242,0 2.134,0 Z"
         style="fill:#ffffff icc-color(sRGB-IEC61966-2, 0.1, 1, 1, 1);fill-opacity:1;fill-rule:nonzero;stroke:none"
         transform="matrix(0.39197238,0,0,-0.39197238,83.772424,107.76901)"
         clip-path="url(#clipPath1739-0)" />
    </g>
  </g>
</svg>
