<?xml version="1.0" encoding="UTF-8" standalone="no"?>
<!-- Created with Inkscape (http://www.inkscape.org/) -->

<svg
   width="47.625mm"
   height="47.625mm"
   viewBox="0 0 47.625 47.625"
   version="1.1"
   id="svg1"
   inkscape:version="1.3.2 (091e20e, 2023-11-25)"
   sodipodi:docname="nsw-sydney-metro.svg"
   xmlns:inkscape="http://www.inkscape.org/namespaces/inkscape"
   xmlns:sodipodi="http://sodipodi.sourceforge.net/DTD/sodipodi-0.dtd"
   xmlns="http://www.w3.org/2000/svg"
   xmlns:svg="http://www.w3.org/2000/svg">
  <sodipodi:namedview
     id="namedview1"
     pagecolor="#ffffff"
     bordercolor="#000000"
     borderopacity="0.25"
     inkscape:showpageshadow="2"
     inkscape:pageopacity="0.0"
     inkscape:pagecheckerboard="0"
     inkscape:deskcolor="#d1d1d1"
     inkscape:document-units="mm"
     inkscape:zoom="2.4589"
     inkscape:cx="211.27334"
     inkscape:cy="54.495914"
     inkscape:window-width="2048"
     inkscape:window-height="1253"
     inkscape:window-x="0"
     inkscape:window-y="73"
     inkscape:window-maximized="0"
     inkscape:current-layer="layer1" />
  <defs
     id="defs1">
    <clipPath
       clipPathUnits="userSpaceOnUse"
       id="clipPath1516-9">
      <path
         d="M 0,1417.323 H 1020.472 V 0 H 0 Z"
         transform="translate(-220.03131,-1303.6281)"
         id="path1516-1" />
    </clipPath>
    <clipPath
       clipPathUnits="userSpaceOnUse"
       id="clipPath1518-8">
      <path
         d="M 0,1417.323 H 1020.472 V 0 H 0 Z"
         transform="translate(-226.8922,-1272.1455)"
         id="path1518-5" />
    </clipPath>
    <clipPath
       clipPathUnits="userSpaceOnUse"
       id="clipPath1520-4">
      <path
         d="M 0,1417.323 H 1020.472 V 0 H 0 Z"
         transform="translate(-220.03131,-1304.6936)"
         id="path1520-0" />
    </clipPath>
  </defs>
  <g
     inkscape:label="Layer 1"
     inkscape:groupmode="layer"
     id="layer1">
    <g
       id="g102"
       inkscape:label="M"
       transform="matrix(3.1093096,0,0,3.1093096,-74.478073,-316.00393)">
      <path
         id="path1515"
         d="m 0,0 c -11.384,0 -20.643,-9.261 -20.643,-20.644 0,-11.382 9.259,-20.644 20.643,-20.644 11.384,0 20.643,9.262 20.643,20.644 C 20.643,-9.261 11.384,0 0,0"
         style="fill:#06969f;fill-opacity:1;fill-rule:nonzero;stroke:none"
         transform="matrix(0.35277776,0,0,-0.35277776,31.611703,102.00743)"
         clip-path="url(#clipPath1516-9)" />
      <path
         id="path1517"
         d="m 0,0 c -0.207,0 -0.384,0.149 -0.384,0.413 v 13.043 c 0,1.301 0.177,2.927 0.265,3.872 H -0.207 L -4.969,0.355 C -5.027,0.178 -5.145,0 -5.411,0 h -3.401 c -0.266,0 -0.354,0.149 -0.414,0.325 l -4.407,17.003 c -0.028,0.061 -0.028,0.12 -0.059,0.178 0.088,-1.094 0.266,-2.424 0.266,-3.992 V 0.413 C -13.426,0.149 -13.633,0 -13.809,0 h -3.018 c -0.206,0 -0.384,0.178 -0.384,0.413 v 20.79 c 0,0.207 0.118,0.444 0.413,0.444 h 5.088 c 0.206,0 0.355,-0.09 0.442,-0.325 l 3.047,-10.706 c 0.592,-2.1 1.124,-4.731 1.331,-6.831 0.178,2.1 0.798,4.673 1.448,6.89 0.945,3.018 1.804,6.004 2.722,9.019 0.147,0.534 0.325,1.096 0.472,1.628 0.178,0.501 1.391,0.325 2.099,0.325 h 3.225 c 0.295,0 0.415,-0.176 0.415,-0.385 V 0.413 C 3.491,0.149 3.313,0 3.135,0 Z"
         style="fill:#ffffff;fill-opacity:1;fill-rule:nonzero;stroke:none"
         transform="matrix(0.35277776,0,0,-0.35277776,34.032074,113.1138)"
         clip-path="url(#clipPath1518-8)" />
      <path
         id="path1519"
         d="m 0,0 c -11.97,0 -21.709,-9.739 -21.709,-21.709 0,-11.971 9.739,-21.71 21.709,-21.71 11.97,0 21.709,9.739 21.709,21.71 C 21.709,-9.739 11.97,0 0,0 m 0,-3.413 c 10.089,0 18.296,-8.208 18.296,-18.296 0,-10.089 -8.207,-18.297 -18.296,-18.297 -10.089,0 -18.296,8.208 -18.296,18.297 0,10.088 8.207,18.296 18.296,18.296"
         style="fill:#ffffff;fill-opacity:1;fill-rule:nonzero;stroke:none"
         transform="matrix(0.35277776,0,0,-0.35277776,31.611703,101.63154)"
         clip-path="url(#clipPath1520-4)" />
    </g>
  </g>
</svg>
