<?xml version="1.0" encoding="UTF-8" standalone="no"?>
<!-- Created with Inkscape (http://www.inkscape.org/) -->

<svg
   width="47.625mm"
   height="47.625mm"
   viewBox="0 0 47.625 47.625"
   version="1.1"
   id="svg1"
   inkscape:version="1.3.2 (091e20e, 2023-11-25)"
   sodipodi:docname="nsw-trainlink.svg"
   xmlns:inkscape="http://www.inkscape.org/namespaces/inkscape"
   xmlns:sodipodi="http://sodipodi.sourceforge.net/DTD/sodipodi-0.dtd"
   xmlns="http://www.w3.org/2000/svg"
   xmlns:svg="http://www.w3.org/2000/svg">
  <sodipodi:namedview
     id="namedview1"
     pagecolor="#ffffff"
     bordercolor="#000000"
     borderopacity="0.25"
     inkscape:showpageshadow="2"
     inkscape:pageopacity="0.0"
     inkscape:pagecheckerboard="0"
     inkscape:deskcolor="#d1d1d1"
     inkscape:document-units="mm"
     inkscape:zoom="1.8444592"
     inkscape:cx="133.64351"
     inkscape:cy="128.76403"
     inkscape:window-width="2048"
     inkscape:window-height="1156"
     inkscape:window-x="0"
     inkscape:window-y="46"
     inkscape:window-maximized="0"
     inkscape:current-layer="layer1" />
  <defs
     id="defs1">
    <clipPath
       clipPathUnits="userSpaceOnUse"
       id="clipPath3400-0">
      <path
         d="m 459.266,577.706 c -11.295,-1.964 -20.205,-10.874 -22.169,-22.169 v 0 -9.42 c 1.964,-11.296 10.874,-20.206 22.169,-22.17 v 0 h 9.42 c 11.296,1.964 20.206,10.874 22.17,22.17 v 0 9.42 c -1.964,11.295 -10.874,20.205 -22.17,22.169 v 0 z"
         transform="translate(-463.97631,-526.05951)"
         id="path3400-5" />
    </clipPath>
    <clipPath
       clipPathUnits="userSpaceOnUse"
       id="clipPath3402-1">
      <path
         d="m 459.266,577.706 c -11.295,-1.964 -20.205,-10.874 -22.169,-22.169 v 0 -9.42 c 1.964,-11.296 10.874,-20.206 22.169,-22.17 v 0 h 9.42 c 11.296,1.964 20.206,10.874 22.17,22.17 v 0 9.42 c -1.964,11.295 -10.874,20.205 -22.17,22.169 v 0 z"
         transform="translate(-463.97631,-577.70621)"
         id="path3402-5" />
    </clipPath>
    <clipPath
       clipPathUnits="userSpaceOnUse"
       id="clipPath3404-6">
      <path
         d="m 459.266,577.706 c -11.295,-1.964 -20.205,-10.874 -22.169,-22.169 v 0 -9.42 c 1.964,-11.296 10.874,-20.206 22.169,-22.17 v 0 h 9.42 c 11.296,1.964 20.206,10.874 22.17,22.17 v 0 9.42 c -1.964,11.295 -10.874,20.205 -22.17,22.169 v 0 z"
         transform="translate(-461.70761,-535.29581)"
         id="path3404-1" />
    </clipPath>
  </defs>
  <g
     inkscape:label="Layer 1"
     inkscape:groupmode="layer"
     id="layer1">
    <g
       id="g106"
       inkscape:label="TL"
       transform="matrix(4.7625039,0,0,4.7625039,-476.25043,-476.2505)">
      <path
         id="path3399"
         d="m 0,0 c -13.657,0 -24.767,11.111 -24.767,24.767 0,13.657 11.11,24.767 24.767,24.767 13.656,0 24.767,-11.11 24.767,-24.767 C 24.767,11.111 13.656,0 0,0"
         style="fill:#e26d23;fill-opacity:1;fill-rule:nonzero;stroke:none"
         transform="matrix(0.1860163,0,0,-0.1860163,104.99994,109.60709)"
         clip-path="url(#clipPath3400-0)"
         sodipodi:nodetypes="csssc" />
      <path
         id="path3401"
         d="m 0,0 c -14.821,0 -26.879,-12.058 -26.879,-26.88 0,-14.821 12.058,-26.879 26.879,-26.879 14.821,0 26.88,12.058 26.88,26.879 C 26.88,-12.058 14.821,0 0,0 m 0,-4.225 c 12.491,0 22.654,-10.163 22.654,-22.655 0,-12.492 -10.163,-22.654 -22.654,-22.654 -12.492,0 -22.654,10.162 -22.654,22.654 0,12.492 10.162,22.655 22.654,22.655"
         style="fill:#ffffff icc-color(sRGB-IEC61966-2, 0.1, 1, 1, 1);fill-opacity:1;fill-rule:nonzero;stroke:none"
         transform="matrix(0.1860163,0,0,-0.1860163,104.99994,99.999964)"
         clip-path="url(#clipPath3402-1)" />
      <path
         id="path3403"
         d="M 0,0 C -0.228,0 -0.494,0.228 -0.494,0.532 V 23.037 H -7.83 c -0.342,0 -0.494,0.342 -0.494,0.57 v 3.687 c 0,0.229 0.152,0.532 0.494,0.532 h 20.186 c 0.342,0 0.494,-0.303 0.494,-0.532 v -3.687 c 0,-0.228 -0.152,-0.57 -0.494,-0.57 H 5.02 V 0.532 C 5.02,0.228 4.79,0 4.486,0 Z"
         style="fill:#ffffff icc-color(sRGB-IEC61966-2, 0.1, 1, 1, 1);fill-opacity:1;fill-rule:nonzero;stroke:none"
         transform="matrix(0.1860163,0,0,-0.1860163,104.57793,107.88899)"
         clip-path="url(#clipPath3404-6)" />
    </g>
  </g>
</svg>
