<?xml version="1.0" encoding="UTF-8" standalone="no"?>
<!-- Created with Inkscape (http://www.inkscape.org/) -->

<svg
   width="512"
   height="512"
   viewBox="0 0 512 512"
   version="1.1"
   id="svg1"
   inkscape:version="1.3.2 (091e20e, 2023-11-25)"
   sodipodi:docname="512-t.svg"
   inkscape:export-filename="512-t.png"
   inkscape:export-xdpi="96"
   inkscape:export-ydpi="96"
   xmlns:inkscape="http://www.inkscape.org/namespaces/inkscape"
   xmlns:sodipodi="http://sodipodi.sourceforge.net/DTD/sodipodi-0.dtd"
   xmlns="http://www.w3.org/2000/svg"
   xmlns:svg="http://www.w3.org/2000/svg">
  <sodipodi:namedview
     id="namedview1"
     pagecolor="#ffffff"
     bordercolor="#000000"
     borderopacity="0.25"
     inkscape:showpageshadow="2"
     inkscape:pageopacity="0.0"
     inkscape:pagecheckerboard="0"
     inkscape:deskcolor="#d1d1d1"
     inkscape:document-units="px"
     showgrid="true"
     inkscape:zoom="1.4309677"
     inkscape:cx="188.33408"
     inkscape:cy="274.63931"
     inkscape:window-width="2048"
     inkscape:window-height="1253"
     inkscape:window-x="0"
     inkscape:window-y="73"
     inkscape:window-maximized="0"
     inkscape:current-layer="layer1">
    <inkscape:grid
       id="grid1"
       units="px"
       originx="0"
       originy="0"
       spacingx="1"
       spacingy="1"
       empcolor="#0099e5"
       empopacity="0.30196078"
       color="#0099e5"
       opacity="0.14901961"
       empspacing="5"
       dotted="false"
       gridanglex="30"
       gridanglez="30"
       visible="true" />
  </sodipodi:namedview>
  <defs
     id="defs1">
    <clipPath
       clipPathUnits="userSpaceOnUse"
       id="clipPath1705">
      <path
         d="M 0,0 H 1913.386 V 4464.567 H 0 Z"
         transform="translate(-1647.078,-4304.0011)"
         id="path1705" />
    </clipPath>
    <clipPath
       clipPathUnits="userSpaceOnUse"
       id="clipPath1703">
      <path
         d="M 0,0 H 1913.386 V 4464.567 H 0 Z"
         transform="translate(-1689.0837,-4340.3775)"
         id="path1703" />
    </clipPath>
    <clipPath
       clipPathUnits="userSpaceOnUse"
       id="clipPath1705-0">
      <path
         d="M 0,0 H 1913.386 V 4464.567 H 0 Z"
         transform="translate(-1647.078,-4304.0011)"
         id="path1705-6" />
    </clipPath>
    <clipPath
       clipPathUnits="userSpaceOnUse"
       id="clipPath1703-2">
      <path
         d="M 0,0 H 1913.386 V 4464.567 H 0 Z"
         transform="translate(-1689.0837,-4340.3775)"
         id="path1703-2" />
    </clipPath>
  </defs>
  <g
     inkscape:label="Layer 1"
     inkscape:groupmode="layer"
     id="layer1">
    <rect
       style="fill:none;fill-opacity:1;stroke-width:4.30026"
       id="rect2"
       width="512"
       height="512"
       x="0"
       y="0"
       rx="84.827606"
       ry="84.827606" />
    <path
       id="path1702-2"
       d="m 0,0 c 0,-39.038 -31.646,-70.684 -70.684,-70.684 -39.037,0 -70.683,31.646 -70.683,70.684 0,39.038 31.646,70.684 70.683,70.684 C -31.646,70.684 0,39.038 0,0"
       style="fill:#42bd9a;fill-opacity:1;fill-rule:nonzero;stroke:none"
       transform="matrix(3.3187909,0,0,-3.3187909,490.50083,256)"
       clip-path="url(#clipPath1703-2)" />
    <path
       id="path1704-2"
       d="m 0,0 h -5.494 l -2.917,4.491 h 2.529 c 1.003,0 1.825,0.821 1.825,1.801 0,1.003 -0.822,1.824 -1.825,1.824 h -4.878 l -2.303,3.556 h 1.413 c 6.27,0 11.377,5.107 11.377,11.354 v 47.512 c 0,6.246 -5.107,11.353 -11.377,11.353 h -34.037 c -6.27,0 -11.377,-5.107 -11.377,-11.353 V 23.026 c 0,-6.247 5.107,-11.354 11.377,-11.354 h 1.39 L -46.6,8.116 h -4.855 c -1.003,0 -1.824,-0.821 -1.824,-1.824 0,-0.98 0.821,-1.801 1.824,-1.801 h 2.508 L -51.843,0 h -5.494 c -1.003,0 -1.824,-0.821 -1.824,-1.824 0,-0.981 0.821,-1.801 1.824,-1.801 h 3.147 l -0.663,-1.026 c -0.889,-1.345 -0.501,-3.146 0.845,-4.013 0.501,-0.319 1.048,-0.478 1.572,-0.478 0.958,0 1.893,0.478 2.44,1.345 l 2.713,4.172 h 37.23 l 2.713,-4.172 c 0.547,-0.867 1.482,-1.345 2.416,-1.345 0.548,0 1.095,0.159 1.596,0.478 1.345,0.867 1.732,2.668 0.844,4.013 l -0.662,1.026 H 0 c 1.003,0 1.824,0.82 1.824,1.801 C 1.824,-0.821 1.003,0 0,0 m -12.174,19.013 c -2.758,0 -4.993,2.235 -4.993,4.993 0,2.782 2.235,5.038 4.993,5.038 2.782,0 5.016,-2.256 5.016,-5.038 0,-2.758 -2.234,-4.993 -5.016,-4.993 m -24.621,57.178 c 0,1.574 1.39,2.918 3.076,2.918 h 10.078 c 1.71,0 3.1,-1.344 3.1,-2.918 v -0.98 c 0,-1.618 -1.39,-2.918 -3.1,-2.918 h -10.078 c -1.686,0 -3.076,1.3 -3.076,2.918 z M -50.11,63.287 c 0,3.421 2.781,6.202 6.201,6.202 h 30.481 c 3.42,0 6.202,-2.781 6.202,-6.202 v -9.278 c 0,-3.42 -2.782,-6.201 -6.202,-6.201 h -30.481 c -3.42,0 -6.201,2.781 -6.201,6.201 z m -0.069,-39.281 c 0,2.782 2.235,5.038 4.993,5.038 2.782,0 5.016,-2.256 5.016,-5.038 0,-2.758 -2.234,-4.993 -5.016,-4.993 -2.758,0 -4.993,2.235 -4.993,4.993 m 12.791,-12.334 h 17.417 l 2.303,-3.556 H -39.669 Z M -44.934,0 -42.04,4.491 h 26.72 L -12.402,0 Z"
       style="fill:#ffffff icc-color(sRGB-IEC61966-2, 0.1, 1, 1, 1);fill-opacity:1;fill-rule:nonzero;stroke:none"
       transform="matrix(3.3187909,0,0,-3.3187909,351.09267,376.72568)"
       clip-path="url(#clipPath1705-0)" />
  </g>
</svg>
