<svg>
  <g
     id="g9">
    <path
       d="m 16.214466,23.812297 c 0,-4.196356 3.401687,-7.598045 7.598044,-7.598045 4.196355,0 7.598102,3.401689 7.598102,7.598045 0,4.196356 -3.401747,7.598102 -7.598102,7.598102 -4.196357,0 -7.598044,-3.401746 -7.598044,-7.598102 z"
       fill="none"
       opacity="1"
       stroke-linecap="butt"
       stroke-linejoin="round"
       stroke-width="3.72067"
       id="path1"
       style="stroke:#000000;stroke-width:2;stroke-dasharray:none;stroke-opacity:1" />
    <path
       d="M 18.70188,6.9982323 19.709569,2.749822 c 0,0 0.208833,-0.6863521 0.619551,-1.1144413 0.41072,-0.4280698 1.023324,-0.5978968 1.023324,-0.5978968 h 4.773639 c 0,0 0.811015,0.1829317 1.265932,0.5971824 0.454917,0.4142507 0.55393,1.0598399 0.55393,1.0598399 l 1.221541,4.2995179 2.243126,1.1696987"
       fill="none"
       opacity="1"
       stroke-linecap="round"
       stroke-linejoin="round"
       stroke-width="3.72067"
       id="path2"
       style="stroke:#000000;stroke-width:2;stroke-dasharray:none;stroke-opacity:1" />
    <path
       d="M 28.923139,40.626864 27.91545,44.87514 c 0,0 -0.208834,0.686332 -0.619553,1.114421 -0.410718,0.42809 -1.023322,0.597935 -1.023322,0.597935 h -4.773639 c 0,0 -0.811015,-0.18297 -1.265933,-0.597163 -0.454916,-0.414192 -0.553929,-1.059801 -0.553929,-1.059801 l -1.221541,-4.299613 -2.243068,-1.169622"
       fill="none"
       opacity="1"
       stroke-linecap="round"
       stroke-linejoin="round"
       stroke-width="3.72067"
       id="path3"
       style="stroke:#000000;stroke-width:2;stroke-dasharray:none;stroke-opacity:1" />
    <path
       d="m 40.626885,18.70186 4.248275,1.00769 c 0,0 0.686332,0.208833 1.114422,0.619552 0.428088,0.410719 0.597934,1.023322 0.597934,1.023322 v 4.77364 c 0,0 -0.182969,0.811015 -0.597162,1.265932 -0.414193,0.454917 -1.059801,0.553929 -1.059801,0.553929 l -4.299616,1.221541 -1.16962,2.243126"
       fill="none"
       opacity="1"
       stroke-linecap="round"
       stroke-linejoin="round"
       stroke-width="3.72067"
       id="path4"
       style="stroke:#000000;stroke-width:2;stroke-dasharray:none;stroke-opacity:1" />
    <path
       d="m 6.998232,28.923119 -4.24841,-1.007688 c 0,0 -0.6863521,-0.208833 -1.1144413,-0.619553 C 1.2073109,26.88516 1.0374839,26.272556 1.0374839,26.272556 v -4.773639 c 0,0 0.1829317,-0.811016 0.5971824,-1.265933 0.4142507,-0.454917 1.0598399,-0.55393 1.0598399,-0.55393 l 4.2995177,-1.221348 1.1696989,-2.243241"
       fill="none"
       opacity="1"
       stroke-linecap="round"
       stroke-linejoin="round"
       stroke-width="3.72067"
       id="path5"
       style="stroke:#000000;stroke-width:2;stroke-dasharray:none;stroke-opacity:1" />
    <path
       d="m 39.315789,32.088239 2.29157,3.716541 c 0,0 0.337569,0.633064 0.349923,1.226174 0.01235,0.593109 -0.3009,1.146462 -0.3009,1.146462 l -3.375497,3.375302 c 0,0 -0.702739,0.44411 -1.317465,0.473062 -0.614534,0.02876 -1.141056,-0.357835 -1.141056,-0.357835 l -3.903951,-2.176539 -2.413166,0.759097"
       fill="none"
       opacity="1"
       stroke-linecap="round"
       stroke-linejoin="round"
       stroke-width="3.72067"
       id="path6"
       style="stroke:#000000;stroke-width:2;stroke-dasharray:none;stroke-opacity:1" />
    <path
       d="M 8.3092311,15.536799 6.0176603,11.8202 c 0,0 -0.3376465,-0.632986 -0.3499213,-1.226115 C 5.6554614,10.000956 5.9685788,9.4477013 5.9685788,9.4477013 L 9.3440571,6.0722036 c 0,0 0.7028149,-0.4441087 1.3174469,-0.4728859 0.614649,-0.028794 1.141095,0.3577192 1.141095,0.3577192 l 3.903912,2.1765381 2.41326,-0.7590573"
       fill="none"
       opacity="1"
       stroke-linecap="round"
       stroke-linejoin="round"
       stroke-width="3.72067"
       id="path7"
       style="stroke:#000000;stroke-width:2;stroke-dasharray:none;stroke-opacity:1" />
    <path
       d="m 15.5368,39.315769 -3.716599,2.291572 c 0,0 -0.632986,0.337569 -1.226115,0.349921 -0.59313,0.01235 -1.1463847,-0.300897 -1.1463847,-0.300897 L 6.0722036,38.281059 c 0,0 -0.4441087,-0.70293 -0.4728859,-1.317465 -0.028794,-0.614727 0.3577192,-1.14125 0.3577192,-1.14125 L 8.133575,31.918586 7.3745177,29.505228"
       fill="none"
       opacity="1"
       stroke-linecap="round"
       stroke-linejoin="round"
       stroke-width="3.72067"
       id="path8"
       style="stroke:#000000;stroke-width:2;stroke-dasharray:none;stroke-opacity:1" />
    <path
       d="M 32.088258,8.3092311 35.8048,6.0176603 c 0,0 0.633064,-0.3376465 1.226173,-0.3499213 0.593111,-0.012278 1.146269,0.3008398 1.146269,0.3008398 l 3.375497,3.3754783 c 0,0 0.444108,0.7028149 0.47306,1.3174469 0.02876,0.614649 -0.357834,1.141095 -0.357834,1.141095 l -2.17654,3.903912 0.759096,2.413261"
       fill="none"
       opacity="1"
       stroke-linecap="round"
       stroke-linejoin="round"
       stroke-width="3.72067"
       id="path9"
       style="stroke:#000000;stroke-width:2;stroke-dasharray:none;stroke-opacity:1" />
  </g>
</svg>
